<svg width="37" height="26" viewBox="0 0 37 26" fill="none" xmlns="http://www.w3.org/2000/svg">
<path d="M34.8336 3.8815C34.2862 3.63504 33.6785 3.55487 33.0859 3.65096C32.4934 3.74705 31.9421 4.01517 31.5007 4.42198L27.6272 8.02519V5.41286C27.6272 3.97942 27.0578 2.60469 26.0442 1.59109C25.0306 0.57749 23.6558 0.00805664 22.2224 0.00805664H6.00799C4.57454 0.00805664 3.19981 0.57749 2.18621 1.59109C1.17261 2.60469 0.60318 3.97942 0.60318 5.41286V19.8257C0.60318 21.2591 1.17261 22.6339 2.18621 23.6475C3.19981 24.6611 4.57454 25.2305 6.00799 25.2305H22.2224C23.6558 25.2305 25.0306 24.6611 26.0442 23.6475C27.0578 22.6339 27.6272 21.2591 27.6272 19.8257V17.2134L31.5187 20.8166C32.0916 21.3351 32.8358 21.6239 33.6085 21.6273C34.0374 21.6263 34.4611 21.5342 34.8516 21.357C35.383 21.1421 35.8382 20.7736 36.1591 20.2987C36.48 19.8237 36.6521 19.2639 36.6532 18.6907V6.54787C36.6506 5.9726 36.4759 5.41126 36.1517 4.93609C35.8274 4.46091 35.3684 4.09363 34.8336 3.8815ZM24.024 19.8257C24.024 20.3035 23.8342 20.7617 23.4963 21.0996C23.1585 21.4375 22.7002 21.6273 22.2224 21.6273H6.00799C5.53017 21.6273 5.07193 21.4375 4.73406 21.0996C4.3962 20.7617 4.20638 20.3035 4.20638 19.8257V5.41286C4.20638 4.93505 4.3962 4.4768 4.73406 4.13894C5.07193 3.80107 5.53017 3.61126 6.00799 3.61126H22.2224C22.7002 3.61126 23.1585 3.80107 23.4963 4.13894C23.8342 4.4768 24.024 4.93505 24.024 5.41286V19.8257ZM33.032 17.3034L27.9695 12.6193L33.032 7.93511V17.3034Z" fill="white"/>
</svg>
