<svg width="39" height="31" viewBox="0 0 39 31" fill="none" xmlns="http://www.w3.org/2000/svg">
<path d="M33.2895 0H4.8445C3.2741 0 2 1.2741 2 2.8445V21.8078C2 23.3782 3.2741 24.6523 4.8445 24.6523H16.2225L15.2743 27.4968H11.0076C10.2194 27.4968 9.58532 28.1309 9.58532 28.919C9.58532 29.7072 10.2194 30.3413 11.0076 30.3413H27.1264C27.9145 30.3413 28.5486 29.7072 28.5486 28.919C28.5486 28.1309 27.9145 27.4968 27.1264 27.4968H22.8596L21.9115 24.6523H33.2895C34.8599 24.6523 36.134 23.3782 36.134 21.8078V2.8445C36.134 1.2741 34.8599 0 33.2895 0ZM32.3413 20.8596H5.79266V3.79266H32.3413V20.8596Z" fill="white"/>
<rect x="35.7219" width="4.63265" height="44.183" rx="2" transform="rotate(52.4128 35.7219 0)" fill="white"/>
</svg>
