<svg width="46" height="19" viewBox="0 0 46 19" fill="none" xmlns="http://www.w3.org/2000/svg">
<path d="M6.59471 18.3769L14.1191 15.3671C14.44 15.238 14.7103 15.0082 14.8893 14.7122C15.0682 14.4162 15.1462 14.07 15.1114 13.7259L14.5941 8.54342C19.9809 6.60868 25.873 6.60868 31.2598 8.54342L30.7425 13.7259C30.707 14.0701 30.7847 14.4165 30.9638 14.7127C31.1428 15.0088 31.4135 15.2386 31.7348 15.3671L39.2592 18.3769C39.6074 18.5136 39.9924 18.5245 40.3479 18.4078C40.7033 18.291 41.0068 18.0539 41.2061 17.7373L44.9684 11.7178C45.1596 11.4117 45.2415 11.0497 45.2006 10.6911C45.1597 10.3325 44.9984 9.99828 44.7431 9.7431C32.6805 -2.3195 13.1452 -2.30069 1.10141 9.7431C0.845926 9.99826 0.6845 10.3325 0.643502 10.6912C0.602502 11.05 0.684349 11.412 0.875678 11.7183L4.63789 17.7378C4.83885 18.0553 5.14417 18.2928 5.50133 18.4094C5.85848 18.5261 6.24512 18.5146 6.59471 18.3769Z" fill="white"/>
</svg>
