<svg width="177" height="44" viewBox="0 0 177 44" fill="none" xmlns="http://www.w3.org/2000/svg">
<path d="M80.9855 27.352H77.8895V25.948H76.7375V34.048H77.9975V37H70.4375V34.048H71.6975V25.948H70.5455V27.352H67.4495V22.996H80.9855V27.352ZM91.7792 34.048V37H87.0272V35.776C86.7632 36.16 86.3912 36.502 85.9112 36.802C85.4432 37.102 84.8672 37.252 84.1832 37.252C83.2832 37.252 82.5752 37.012 82.0592 36.532C81.5432 36.052 81.2852 35.374 81.2852 34.498C81.2852 32.23 83.2112 31.066 87.0632 31.006C87.0272 30.598 86.8712 30.322 86.5952 30.178C86.3192 30.022 85.8512 29.944 85.1912 29.944C84.6512 29.944 84.0692 30.004 83.4452 30.124C82.8332 30.232 82.2692 30.382 81.7532 30.574V27.262C82.3892 27.106 83.0792 26.98 83.8232 26.884C84.5672 26.788 85.2932 26.74 86.0012 26.74C87.7892 26.74 89.0672 27.064 89.8352 27.712C90.6032 28.36 90.9872 29.362 90.9872 30.718V34.048H91.7792ZM87.0272 32.788C86.4872 32.788 86.0672 32.86 85.7672 33.004C85.4792 33.148 85.3352 33.388 85.3352 33.724C85.3352 33.928 85.3952 34.096 85.5152 34.228C85.6472 34.348 85.8272 34.408 86.0552 34.408C86.3672 34.408 86.6072 34.276 86.7752 34.012C86.9432 33.748 87.0272 33.376 87.0272 32.896V32.788ZM92.3594 37.018V34.048H93.1514V25.948H92.3594V22.996H97.2914V34.048H98.0834V37.018H92.3594ZM109.506 34.048H110.28V37H105.87L104.016 33.544H103.584V37H98.6524V34.048H99.4444V25.948H98.6524V22.996H103.584V30.304H104.016L106.248 26.992H110.046V29.944H109.308L107.778 31.654L109.506 34.048ZM120.694 37.252C119.422 37.252 118.462 36.946 117.814 36.334C117.178 35.71 116.86 34.666 116.86 33.202V29.944H116.068V26.992C116.524 26.992 116.866 26.878 117.094 26.65C117.322 26.41 117.436 26.086 117.436 25.678V24.868H121.252V26.992H123.682V29.944H121.252V32.896C121.252 33.292 121.336 33.586 121.504 33.778C121.684 33.958 121.948 34.048 122.296 34.048C122.752 34.048 123.25 33.994 123.79 33.886V36.712C123.454 36.844 122.998 36.964 122.422 37.072C121.858 37.192 121.282 37.252 120.694 37.252ZM129.733 37.252C128.029 37.252 126.697 36.808 125.737 35.92C124.777 35.02 124.297 33.712 124.297 31.996C124.297 30.28 124.777 28.978 125.737 28.09C126.697 27.19 128.029 26.74 129.733 26.74C131.461 26.74 132.799 27.196 133.747 28.108C134.695 29.008 135.169 30.304 135.169 31.996C135.169 33.712 134.689 35.02 133.729 35.92C132.769 36.808 131.437 37.252 129.733 37.252ZM129.733 34.048C130.081 34.048 130.339 33.958 130.507 33.778C130.687 33.586 130.777 33.292 130.777 32.896V31.096C130.777 30.7 130.687 30.412 130.507 30.232C130.339 30.04 130.081 29.944 129.733 29.944C129.385 29.944 129.121 30.04 128.941 30.232C128.773 30.412 128.689 30.7 128.689 31.096V32.896C128.689 33.292 128.773 33.586 128.941 33.778C129.121 33.958 129.385 34.048 129.733 34.048ZM159.319 34.048V37H153.631V34.048H154.387V31.096C154.387 30.7 154.303 30.412 154.135 30.232C153.967 30.04 153.715 29.944 153.379 29.944C152.659 29.944 152.299 30.328 152.299 31.096V34.048H153.055V37H147.403V34.048H148.159V31.096C148.159 30.7 148.075 30.412 147.907 30.232C147.739 30.04 147.487 29.944 147.151 29.944C146.431 29.944 146.071 30.328 146.071 31.096V34.048H146.827V37H141.139V34.048H141.931V29.944H141.139V26.992H146.071V28.396C146.935 27.292 148.015 26.74 149.311 26.74C150.043 26.74 150.637 26.914 151.093 27.262C151.561 27.598 151.891 28.078 152.083 28.702C152.515 28.078 153.007 27.598 153.559 27.262C154.123 26.926 154.783 26.758 155.539 26.758C156.535 26.758 157.279 27.07 157.771 27.694C158.275 28.318 158.527 29.176 158.527 30.268V34.048H159.319ZM165.259 37.252C163.555 37.252 162.223 36.808 161.263 35.92C160.303 35.02 159.823 33.712 159.823 31.996C159.823 30.28 160.303 28.978 161.263 28.09C162.223 27.19 163.555 26.74 165.259 26.74C166.951 26.74 168.169 27.184 168.913 28.072C169.669 28.948 170.047 30.04 170.047 31.348V32.644H164.215V32.752C164.215 33.196 164.347 33.526 164.611 33.742C164.875 33.946 165.313 34.048 165.925 34.048C166.657 34.048 167.353 33.994 168.013 33.886C168.673 33.778 169.249 33.64 169.741 33.472V36.352C169.321 36.58 168.703 36.79 167.887 36.982C167.083 37.162 166.207 37.252 165.259 37.252ZM166.303 30.664V30.448C166.303 30.04 166.213 29.746 166.033 29.566C165.865 29.386 165.607 29.296 165.259 29.296C164.911 29.296 164.647 29.392 164.467 29.584C164.299 29.764 164.215 30.052 164.215 30.448V30.664H166.303ZM171.446 33.058L170.618 23.896V22.996H176V23.896L175.154 33.058H171.446ZM171.266 37V34.048H175.334V37H171.266Z" fill="white"/>
<path d="M19.6371 30.4345H18.1247V31.9469V37.2962C17.8799 37.2135 17.6153 37.1197 17.3338 37.0137C15.7229 36.4078 13.5817 35.4153 11.4488 33.8725C7.222 30.8149 3 25.5913 3 16.7172C3 9.14137 9.14141 3 16.7172 3H28.607C36.1828 3 42.3241 9.14137 42.3241 16.7172C42.3241 24.2931 36.1828 30.4345 28.607 30.4345H19.6371Z" stroke="#81E6D9" stroke-width="4.06197"/>
<mask id="mask0_13_46" style="mask-type:luminance" maskUnits="userSpaceOnUse" x="29" y="13" width="33" height="31">
<path fill-rule="evenodd" clip-rule="evenodd" d="M29.4445 29.9403C31.1473 34.616 35.6317 37.9547 40.8962 37.9547H45.3496V43.8366C45.3496 43.8366 61.9867 40.8957 61.9867 25.7711C61.9867 19.0421 56.5319 13.5872 49.8029 13.5872H40.8962C40.8396 13.5872 40.7832 13.5877 40.7269 13.5885C40.7829 14.1195 40.8116 14.6588 40.8116 15.2047C40.8116 22.2814 35.9852 28.2306 29.4445 29.9403Z" fill="white"/>
</mask>
<g mask="url(#mask0_13_46)">
<path d="M29.4445 29.9403L28.6795 27.0137L25.4654 27.8539L26.6021 30.9755L29.4445 29.9403ZM45.3496 37.9547H48.3745V34.9298H45.3496V37.9547ZM45.3496 43.8366H42.3247V47.443L45.8761 46.8154L45.3496 43.8366ZM40.7269 13.5885L40.6856 10.5637L37.3709 10.6089L37.7186 13.9058L40.7269 13.5885ZM26.6021 30.9755C28.7259 36.8074 34.3199 40.9797 40.8961 40.9797V34.9298C36.9435 34.9298 33.5684 32.4244 32.2867 28.9052L26.6021 30.9755ZM40.8961 40.9797H45.3496V34.9298H40.8961V40.9797ZM42.3247 37.9547V43.8366H48.3745V37.9547H42.3247ZM45.3496 43.8366C45.8761 46.8154 45.8775 46.8151 45.8788 46.8148C45.8794 46.8148 45.8809 46.8145 45.882 46.8143C45.8843 46.8139 45.8867 46.8134 45.8894 46.813C45.895 46.8119 45.9015 46.8108 45.9089 46.8093C45.924 46.8066 45.9431 46.8031 45.9659 46.7986C46.0119 46.7898 46.0735 46.7777 46.1497 46.762C46.3022 46.7304 46.5133 46.6842 46.7751 46.6209C47.2978 46.4946 48.0262 46.2992 48.8926 46.0148C50.6148 45.4493 52.9367 44.5146 55.2829 43.0335C60.0217 40.0418 65.0117 34.681 65.0117 25.7711H58.9618C58.9618 31.9856 55.633 35.6578 52.0533 37.9177C50.2402 39.0623 48.4028 39.808 47.0056 40.2667C46.3121 40.4943 45.7409 40.6468 45.3537 40.7404C45.1605 40.7871 45.0143 40.8189 44.9231 40.8378C44.8774 40.8472 44.8455 40.8534 44.8286 40.8567C44.8201 40.8584 44.8153 40.8591 44.8142 40.8594C44.8137 40.8594 44.8142 40.8594 44.8157 40.8591C44.8165 40.859 44.8174 40.8588 44.8186 40.8585C44.8192 40.8585 44.8202 40.8582 44.8205 40.8582C44.8218 40.8581 44.823 40.8578 45.3496 43.8366ZM65.0117 25.7711C65.0117 17.3714 58.2024 10.5623 49.8029 10.5623V16.6122C54.8612 16.6122 58.9618 20.7128 58.9618 25.7711H65.0117ZM49.8029 10.5623H40.8961V16.6122H49.8029V10.5623ZM40.8961 10.5623C40.826 10.5623 40.7558 10.5628 40.6856 10.5637L40.768 16.6131C40.8107 16.6125 40.8533 16.6122 40.8961 16.6122V10.5623ZM37.7186 13.9058C37.7635 14.3317 37.7867 14.765 37.7867 15.2047H43.8365C43.8365 14.5527 43.8022 13.9074 43.735 13.271L37.7186 13.9058ZM37.7867 15.2047C37.7867 20.8716 33.9219 25.6434 28.6795 27.0137L30.2095 32.867C38.0485 30.8179 43.8365 23.691 43.8365 15.2047H37.7867Z" fill="#81E6D9"/>
</g>
</svg>
