<svg width="25" height="34" viewBox="0 0 25 34" fill="none" xmlns="http://www.w3.org/2000/svg">
<path d="M11.9425 0.016926C11.7615 0.0461368 11.5827 0.0874 11.4073 0.14044C10.4785 0.349598 9.65096 0.874152 9.06545 1.62482C8.47993 2.37548 8.17265 3.30585 8.19591 4.25758V12.4919C8.19591 13.5838 8.62968 14.631 9.40179 15.4031C10.1739 16.1752 11.2211 16.609 12.3131 16.609C13.405 16.609 14.4522 16.1752 15.2243 15.4031C15.9964 14.631 16.4302 13.5838 16.4302 12.4919V4.25758C16.4501 3.67397 16.3457 3.09281 16.1238 2.55266C15.9019 2.01252 15.5676 1.52575 15.1432 1.12469C14.7187 0.723621 14.2139 0.417429 13.662 0.226439C13.1102 0.0354492 12.5241 -0.035969 11.9425 0.016926ZM1.40263 8.37472C0.976543 8.51796 0.609052 8.79672 0.356285 9.16844C0.103518 9.54015 -0.0206312 9.98439 0.00279957 10.4333V12.4919C0.00279957 18.5852 4.49048 23.567 10.2957 24.5963V28.9604H8.23708C5.97265 28.9604 4.11994 30.8131 4.11994 33.0776H20.6297C20.6297 30.8131 18.777 28.9604 16.5125 28.9604H14.454V24.5963C20.2591 23.6081 24.7468 18.5852 24.7468 12.4919V10.4333C24.7468 9.88733 24.5299 9.36372 24.1439 8.97766C23.7578 8.59161 23.2342 8.37472 22.6882 8.37472C22.1423 8.37472 21.6187 8.59161 21.2326 8.97766C20.8466 9.36372 20.6297 9.88733 20.6297 10.4333V12.4919C20.6297 17.0619 16.9654 20.7261 12.3954 20.7261C7.82537 20.7261 4.16111 17.0619 4.16111 12.4919V10.4333C4.16609 10.1287 4.10343 9.82689 3.97765 9.54949C3.85187 9.27209 3.66609 9.02606 3.43373 8.82914C3.20136 8.63222 2.92819 8.48932 2.63392 8.41074C2.33965 8.33216 2.0316 8.31986 1.732 8.37472C1.64973 8.36978 1.56724 8.36978 1.48497 8.37472H1.40263Z" fill="white"/>
</svg>
