<svg width="44" height="44" viewBox="0 0 44 44" fill="none" xmlns="http://www.w3.org/2000/svg">
<path d="M37.8336 12.8815C37.2862 12.635 36.6785 12.5549 36.0859 12.651C35.4934 12.7471 34.9421 13.0152 34.5007 13.422L30.6272 17.0252V14.4129C30.6272 12.9794 30.0578 11.6047 29.0442 10.5911C28.0306 9.57749 26.6558 9.00806 25.2224 9.00806H9.00799C7.57454 9.00806 6.19981 9.57749 5.18621 10.5911C4.17261 11.6047 3.60318 12.9794 3.60318 14.4129V28.8257C3.60318 30.2591 4.17261 31.6339 5.18621 32.6475C6.19981 33.6611 7.57454 34.2305 9.00799 34.2305H25.2224C26.6558 34.2305 28.0306 33.6611 29.0442 32.6475C30.0578 31.6339 30.6272 30.2591 30.6272 28.8257V26.2134L34.5187 29.8166C35.0916 30.3351 35.8358 30.6239 36.6085 30.6273C37.0374 30.6263 37.4611 30.5342 37.8516 30.357C38.383 30.1421 38.8382 29.7736 39.1591 29.2987C39.4801 28.8237 39.6521 28.2639 39.6532 27.6907V15.5479C39.6506 14.9726 39.4759 14.4113 39.1517 13.9361C38.8274 13.4609 38.3684 13.0936 37.8336 12.8815ZM27.024 28.8257C27.024 29.3035 26.8342 29.7617 26.4963 30.0996C26.1585 30.4375 25.7002 30.6273 25.2224 30.6273H9.00799C8.53017 30.6273 8.07193 30.4375 7.73406 30.0996C7.3962 29.7617 7.20638 29.3035 7.20638 28.8257V14.4129C7.20638 13.935 7.3962 13.4768 7.73406 13.1389C8.07193 12.8011 8.53017 12.6113 9.00799 12.6113H25.2224C25.7002 12.6113 26.1585 12.8011 26.4963 13.1389C26.8342 13.4768 27.024 13.935 27.024 14.4129V28.8257ZM36.032 26.3034L30.9695 21.6193L36.032 16.9351V26.3034Z" fill="white"/>
<rect x="33.8449" y="8" width="4.63265" height="40.0314" rx="2" transform="rotate(52.4128 33.8449 8)" fill="white"/>
</svg>
