<svg width="35" height="31" viewBox="0 0 35 31" fill="none" xmlns="http://www.w3.org/2000/svg">
<path d="M31.2895 0H2.8445C1.2741 0 0 1.2741 0 2.8445V21.8078C0 23.3782 1.2741 24.6523 2.8445 24.6523H14.2225L13.2743 27.4968H9.00757C8.21941 27.4968 7.58532 28.1309 7.58532 28.919C7.58532 29.7072 8.21941 30.3413 9.00757 30.3413H25.1264C25.9145 30.3413 26.5486 29.7072 26.5486 28.919C26.5486 28.1309 25.9145 27.4968 25.1264 27.4968H20.8596L19.9115 24.6523H31.2895C32.8599 24.6523 34.134 23.3782 34.134 21.8078V2.8445C34.134 1.2741 32.8599 0 31.2895 0ZM30.3413 20.8596H3.79266V3.79266H30.3413V20.8596Z" fill="white"/>
</svg>
